<?xml version="1.0" encoding="utf-8"?>
<!-- Generator: Adobe Illustrator 19.2.1, SVG Export Plug-In . SVG Version: 6.00 Build 0)  -->
<svg version="1.1" id="Layer_1" xmlns="http://www.w3.org/2000/svg" xmlns:xlink="http://www.w3.org/1999/xlink" x="0px" y="0px"
	 viewBox="0 0 15 15" style="enable-background:new 0 0 15 15;" xml:space="preserve">
<style type="text/css">
	.st0{fill:#FFFFFF;}
	.st1{fill:#CCCCCC;}
	.st2{fill:#DBDBDB;enable-background:new    ;}
</style>
<title>Add-Icon-hover</title>
<desc>Created with Sketch.</desc>
<path id="Fill-4" class="st0" d="M13.493,4.163H5.274c-0.831,0-1.507,0.652-1.507,1.454v7.93C3.767,14.348,4.443,15,5.274,15h8.219
	C14.324,15,15,14.348,15,13.546v-7.93C15,4.815,14.324,4.163,13.493,4.163 M7.176,10.254h1.51v1.457
	c0,0.094,0.034,0.173,0.102,0.238c0.068,0.065,0.15,0.098,0.247,0.098h0.697c0.097,0,0.179-0.033,0.247-0.098
	c0.068-0.065,0.102-0.145,0.102-0.238v-1.457h1.51c0.097,0,0.179-0.033,0.247-0.098c0.068-0.065,0.102-0.145,0.102-0.238V9.245
	c0-0.093-0.034-0.173-0.102-0.238c-0.068-0.065-0.15-0.098-0.247-0.098h-1.51V7.452c0-0.093-0.034-0.173-0.102-0.238
	s-0.15-0.098-0.247-0.098H9.035c-0.097,0-0.179,0.033-0.247,0.098C8.72,7.279,8.686,7.358,8.686,7.452v1.457h-1.51
	c-0.097,0-0.179,0.033-0.247,0.098C6.861,9.072,6.828,9.152,6.828,9.245v0.673c0,0.093,0.034,0.173,0.102,0.238
	C6.997,10.221,7.079,10.254,7.176,10.254 M13.493,4.956c0.378,0,0.685,0.296,0.685,0.661v7.93c0,0.365-0.307,0.661-0.685,0.661
	H5.274c-0.378,0-0.685-0.296-0.685-0.661v-7.93c0-0.365,0.307-0.661,0.685-0.661H13.493"/>
<path class="st1" d="M13.493,14.207c0.378,0,0.685-0.296,0.685-0.661v-7.93c0-0.365-0.307-0.661-0.685-0.661H5.274
	c-0.378,0-0.685,0.296-0.685,0.661v7.93c0,0.365,0.307,0.661,0.685,0.661H13.493z M6.828,9.245c0-0.093,0.034-0.173,0.102-0.238
	c0.068-0.065,0.15-0.098,0.247-0.098h1.51V7.452c0-0.093,0.034-0.173,0.102-0.238c0.068-0.065,0.15-0.098,0.247-0.098h0.697
	c0.097,0,0.179,0.033,0.247,0.098c0.068,0.065,0.102,0.145,0.102,0.238v1.457h1.51c0.097,0,0.179,0.033,0.247,0.098
	s0.102,0.145,0.102,0.238v0.673c0,0.093-0.034,0.173-0.102,0.238s-0.15,0.098-0.247,0.098h-1.51v1.457
	c0,0.094-0.034,0.173-0.102,0.238c-0.068,0.065-0.15,0.098-0.247,0.098H9.035c-0.097,0-0.179-0.033-0.247-0.098
	c-0.068-0.065-0.102-0.145-0.102-0.238v-1.457h-1.51c-0.097,0-0.179-0.033-0.247-0.098c-0.068-0.065-0.102-0.145-0.102-0.238V9.245z
	"/>
<path class="st2" d="M8.904,0H0.685C0.307,0,0,0.296,0,0.661v7.93c0,0.365,0.307,0.661,0.685,0.661h3.082V7.004h-1.37V2.313H7.26
	v1.85h2.329V0.661C9.589,0.296,9.282,0,8.904,0z"/>
</svg>
